<!--?xml version="1.0" standalone="no"?-->
              <svg id="sw-js-blob-svg" viewBox="0 0 100 100" xmlns="http://www.w3.org/2000/svg" version="1.1">
                    <defs> 
                        <linearGradient id="sw-gradient" x1="0" x2="1" y1="1" y2="0">
                            <stop id="stop1" stop-color="rgba(248, 117, 55, 1)" offset="0%"></stop>
                            <stop id="stop2" stop-color="rgba(251, 168, 31, 1)" offset="100%"></stop>
                        </linearGradient>
                    </defs>
                <path fill="url(#sw-gradient)" d="M25.5,-28C33.5,-23.7,40.6,-16.1,42.5,-7.2C44.4,1.7,41.1,11.8,35.6,19.7C30,27.7,22.2,33.6,14,35.2C5.8,36.8,-2.9,34.2,-10.9,30.9C-19,27.6,-26.5,23.6,-29.4,17.5C-32.3,11.4,-30.6,3.2,-28.3,-4.1C-25.9,-11.4,-23,-17.6,-18.2,-22.5C-13.4,-27.3,-6.7,-30.8,1.1,-32C8.8,-33.3,17.6,-32.3,25.5,-28Z" width="100%" height="100%" transform="translate(50 50)" stroke-width="0" style="transition: all 0.3s ease 0s;"></path>
              </svg>